{"title":"Ellie Goulding - Goodness Gracious 720p x264 AAC E-Subs [GWC].mp","uid":9442463,"size":64955815,"categoryP":"video","categoryS":"music_videos","magnet":"?xt=urn:btih:a664888d7260faf227473a745b0955a49466c66d&amp;dn=Ellie+Goulding+-+Goodness+Gracious+720p+x264+AAC+E-Subs+%5BGWC%5D.mp&amp;tr=udp%3A%2F%2Ftracker.openbittorrent.com%3A80&amp;tr=udp%3A%2F%2Fopen.demonii.com%3A1337&amp;tr=udp%3A%2F%2Ftracker.coppersurfer.tk%3A6969&amp;tr=udp%3A%2F%2Fexodus.desync.com%3A6969","seeders":1,"leechers":1,"uploader":"canc232","files":1,"time":1389037873,"description":"Ellie Goulding - Goodness Gracious 720p x264 AAC E-Subs [GWC] \n\n\nCOVER : &lt;a href=&quot;\nhttp://s20.postimg.org/tku62b9ml/Ellie_Goulding_Goodness_Gracious.jpg&quot; rel=&quot;nofollow&quot; target=&quot;_NEW&quot;&gt;\nhttp://s20.postimg.org/tku62b9ml/Ellie_Goulding_Goodness_Gracious.jpg&lt;/a&gt;\n\n\nTHUMBNAIL IMAGE : &lt;a href=&quot;\nhttp://img819.imageshack.us/img819/323/9mn5.jpg&quot; rel=&quot;nofollow&quot; target=&quot;_NEW&quot;&gt;\nhttp://img819.imageshack.us/img819/323/9mn5.jpg&lt;/a&gt;\n\n\n\nMEDIA INFO :\nGeneral \nFormat : MPEG-4 \nFormat profile : Base Media \nCodec ID : isom \nFile size : 61.9 MiB \nDuration : 3mn 54s \nOverall bit rate mode : Variable \nOverall bit rate : 2 216 Kbps \n\nVideo \nFormat : AVC \nFormat profile : &lt;a class=&quot;__cf_email__&quot; href=&quot;/cdn-cgi/l/email-protection&quot; data-cfemail=&quot;571a363e39171b647966&quot;&gt;[email&amp;#160;protected]&lt;/a&gt;&lt;script cf-hash='f9e31' type=&quot;text/javascript&quot;&gt;\n/* &lt;![CDATA[ */!function(){try{var t=&quot;currentScript&quot;in document?document.currentScript:function(){for(var t=document.getElementsByTagName(&quot;script&quot;),e=t.length;e--;)if(t[e].getAttribute(&quot;cf-hash&quot;))return t[e]}();if(t&amp;&amp;t.previousSibling){var e,r,n,i,c=t.previousSibling,a=c.getAttribute(&quot;data-cfemail&quot;);if(a){for(e=&quot;&quot;,r=parseInt(a.substr(0,2),16),n=2;a.length-n;n+=2)i=parseInt(a.substr(n,2),16)^r,e+=String.fromCharCode(i);e=document.createTextNode(e),c.parentNode.replaceChild(e,c)}}}catch(u){}}();/* ]]&gt; */&lt;/script&gt; \nFormat settings, CABAC : Yes \nFormat settings, ReFrames : 3 frames \nDuration : 3mn 54s \nBit rate : 2 129 Kbps \nMaximum bit rate : 5 028 Kbps \nWidth : 1 280 pixels \nHeight : 720 pixels \nDisplay aspect ratio : 16:9 \nFrame rate : 25.000 fps \nStream size : 59.5 MiB (96%) \nTitle : Ellie Goulding - Goodness Gracious 720p x264 AAC E-Subs [GWC] \n\nAudio \nID : 2 \nFormat profile : LC \nDuration : 3mn 54s \nBit rate mode : Variable \nChannel(s) : 2 channels \nSampling rate : 48.0 KHz \nStream size : 2.36 MiB (4%)\nLanguage : English \n\nText \nFormat : Timed Text \nStream size : 2.87 KiB (0%) \nTitle : English Subtitle by [GWC] \nLanguage : English ","torrent":{"xt":"urn:btih:a664888d7260faf227473a745b0955a49466c66d","amp;dn":"Ellie+Goulding+-+Goodness+Gracious+720p+x264+AAC+E-Subs+%5BGWC%5D.mp","amp;tr":["udp%3A%2F%2Ftracker.openbittorrent.com%3A80","udp%3A%2F%2Fopen.demonii.com%3A1337","udp%3A%2F%2Ftracker.coppersurfer.tk%3A6969","udp%3A%2F%2Fexodus.desync.com%3A6969"],"infoHash":"a664888d7260faf227473a745b0955a49466c66d","infoHashBuffer":{"type":"Buffer","data":[166,100,136,141,114,96,250,242,39,71,58,116,91,9,85,164,148,102,198,109]},"announce":[],"urlList":[]}}